# xmcd CD database file
#
# Track frame offsets:
#	150
#	2938
#	11076
#	19562
#	27366
#	35017
#	42110
#	50973
#	56965
#	65172
#	73840
#	81713
#	89628
#	101054
#	108858
#	118235
#	126679
#	134984
#
# Disc length: 1866 seconds
#
# Revision: 0
# Processed by: cddbd v1.5.2PL0 Copyright (c) Steve Scherf et al.
# Submitted via: CDex 1.70beta2
#
DISCID=23074812
DTITLE=Cliff Edwards - Shakin' The Blues Away
DYEAR=1999
DGENRE=Jazz
TTITLE0=Singing In The Rain
TTITLE1=Sakin' The Blues Away
TTITLE2=Shine
TTITLE3=Alabamy Bound
TTITLE4=I Feel Like A Feather In A Breeze
TTITLE5=Everybody Step
TTITLE6=Indiana
TTITLE7=I Found A New Baby
TTITLE8=I'm Gonna' Sit Right Down And Write Myself A Letter
TTITLE9=Yes Sir! That's My Baby
TTITLE10=Way Down Yonder In New Orleans
TTITLE11=There'll Be Some Changes Made
TTITLE12=The Blues My Sweetie Gives To Me
TTITLE13=Darktown Strutter's Ball
TTITLE14=My Baby Don't Mean Maybe
TTITLE15=Hang On To Me
TTITLE16=When You Wore A Tulip
TTITLE17=Singing In The Rain (reprise)
EXTD=YEAR: 1999
EXTT0=
EXTT1=
EXTT2=
EXTT3=
EXTT4=
EXTT5=
EXTT6=
EXTT7=
EXTT8=
EXTT9=
EXTT10=
EXTT11=
EXTT12=
EXTT13=
EXTT14=
EXTT15=
EXTT16=
EXTT17=
PLAYORDER=
